<?xml version="1.0" encoding="UTF-8"?>
<svg xmlns="http://www.w3.org/2000/svg" version="1.1" viewBox="0 0 916 279">
  <defs>
    <style>
      .cls-1 {
        fill: #f2f2f2;
      }
    </style>
  </defs>
  <!-- Generator: Adobe Illustrator 28.6.0, SVG Export Plug-In . SVG Version: 1.2.0 Build 709)  -->
  <g>
    <g id="Camada_1">
      <g>
        <path class="cls-1" d="M127.4,9.8c19,0,38-.4,57,.1,28.7.8,55.7,26.1,57.4,54.8,1.4,24.2,1,48.6,1.1,72.9,0,12.5.2,25-.9,37.4-2.5,28-26.3,52.7-54.2,55.8-15,1.6-30.2,1-45.4,1.1-4.3,0-7.7,1.3-10.8,4.1-12.1,11.2-24.2,22.4-36.6,33.3-2.2,1.9-6,3.5-8.7,2.9-3.7-.7-4.6-4.6-4.5-8.4.1-8.7,0-17.3,0-26,0-4.2-1.5-5.9-5.9-5.9-34.2-.5-60-22.5-65.7-55.9-.8-4.4-1-9-1-13.4,0-28.5-.1-57,0-85.5,0-22.5,8.1-41.2,26.2-55.1,11-8.5,23.6-12.6,37.6-12.6,18.2,0,36.3,0,54.5,0,0,.1,0,.3,0,.4ZM102,177.3c0,5.6-.1,9.9,0,14.2.3,9.5,5.8,17.2,15.1,18.4,8.6,1.1,17.6,1,26.2-.2,7.5-1.1,13.7-6.3,15.8-13.7,1.8-6.2,5-7.1,10.7-7,27.2.2,46.5-23.5,41.4-50.1-.4-1.9.5-4.5,1.7-6.2,9.1-13.3,9.6-31.2.9-44.7-5.3-8.2-10.6-16.5-15.8-24.8-4.1-6.7-9.8-10.8-17.8-11.2-5.3-.3-10.7-.5-16,0-3.5.2-5.1-.6-5.8-4.2-1.4-7.1-5.6-12-12.6-14.1-10.3-3.2-19.9,2.4-19.9,11.6,0,44,0,88,.2,132,0,2.5.9,5.3,2.3,7.4,2.1,3.3,5.5,3.6,8.7,1.4,3.3-2.3,3.5-5.1,1.1-8.6-1.3-1.9-2.2-4.4-2.3-6.7-.2-21.5-.1-43,0-64.5,0-1.6.2-3.2.3-5,5.7,0,10.9.2,16,0,3.2-.1,5,.6,6.5,3.8,3,6.7,10.3,10.2,16.8,8.7,8.3-1.9,13.4-7.7,14-16,.5-6.9-4.7-14.3-11.8-16.8-7.2-2.5-13.9.1-19,7.1-.9,1.2-2.3,2.8-3.6,2.8-6.3.3-12.5.1-19.2.1,0-14-.2-27.5.2-40.9,0-2,3-5.1,5-5.6,2.1-.4,5.7,1.2,6.9,3,1.5,2.4,1.6,6,1.7,9.1.2,3.7,1.5,5.5,5.4,5.4,6-.2,12,.2,18-.2,7.9-.5,13.6,3.1,17.5,9.4,5.6,9,11.3,18.1,15.8,27.7,5,10.6,3.5,21-3.8,30.4-1.1,1.5-1.4,4.3-.9,6.2,6.6,24.2-12.2,46.3-37.1,43.5-1.1-.1-2.6-1-2.9-1.9-2.3-7.2,2.7-13.9,10.1-13.9,1.2,0,2.3,0,3.5,0,8.1-.9,13.1-5.5,15-13.7,1.4-6.2-1.5-13.4-7-16.9-5.8-3.8-13.2-3.6-18.7.7-4.2,3.3-5.9,7.7-6,13.1,0,4,.2,9.2-2.1,11.7-4.7,5.2-6.2,10.7-5.7,17.3.2,2.8-.2,5.7.1,8.5,1.2,10.5-8.3,19-18.7,18.7-13.5-.3-20.4-6.1-20.6-18.3-.1-9.5,0-19,0-28.5,0-12.2-1-13.2-13.3-13.3-4.9,0-8.8-1.4-10.6-6.5-2.1-6.1-.6-10.8,3.5-14.7,2.7-2.5,5.2-5.7,6.7-9,3.8-8.8-1-19-10.3-22.9-9.3-3.9-19.3.4-23.5,10-4,9-.4,19.3,8.8,22.9,4.6,1.8,4.5,4,3.5,7.8-3.4,12.9,4.2,22.6,17.5,22.6,2.4,0,4.9,0,7.4,0v14.6c-6.6,0-12.7,0-18.9,0-14.1-.1-22.3-8.2-22.4-22.4,0-3.2-.9-5-3.9-6.6-17.4-9.4-19-34.6-3.2-46.6,1.5-1.1,2.2-3.6,2.8-5.5,1.3-4.9,1.3-10.4,3.4-14.8,4.8-9.8,16.5-11.7,24.3-4.5,5.9,5.4,14.9,6.8,21.9,3.4,6.6-3.2,10.3-10.9,9.5-19.9-.7-8.2-6.6-15-14.8-16.7-7.7-1.7-15.8,2.1-19.7,9.4-1.4,2.7-2.3,5.7-3.4,8.6-18.6.6-30.6,11.6-31.1,28.7-.1,4-1.4,6.8-4.2,9.6-14.4,14.7-13.2,39.1,2.9,51.7,3.6,2.8,4.5,6,5.2,10,2.2,14.2,14.4,25.2,28.8,25.9,7.5.3,15,0,23.3,0Z"/>
        <path class="cls-1" d="M367.4,111.5c-6.1.9-11.5,1.9-16.9,2.4-1.1.1-2.8-1-3.3-2-5.7-12.4-15.7-17.5-28.8-15.8-13.3,1.8-20.5,11-23.9,23.2-3.1,11-2.8,22.1,2.8,32.5,5.5,10.2,14.5,15.5,26.1,15.5,10.9,0,19.2-4.5,24-14.7.6-1.3,3-2.5,4.5-2.4,4.9.4,9.8,1.3,15.3,2.2-3.2,11.5-9.6,20-19.1,26.2-21.8,14.1-65.2,7.8-73.9-32.3-4.7-21.4-.4-40.6,16.2-56.1,21.8-20.3,60.2-14.7,73.1,10.7,1.6,3.2,2.5,6.7,3.9,10.7Z"/>
        <path class="cls-1" d="M698.8,80c16.7,0,32.7-.7,48.6.2,15.7.9,26.9,14.5,27.6,30.3,1.1,22.4-14.2,36.5-35.5,36.6-7,0-14,0-21.4,0v35.5h-19.4v-102.5ZM718.2,131c7.3,0,14.2.3,20.9,0,8.6-.4,15.3-7,15.9-15,.8-10.9-3.2-17.7-12.8-19.3-7.8-1.3-15.8-.9-24-1.2v35.6Z"/>
        <path class="cls-1" d="M579.2,149c-.6,9.9,4,17.3,12.1,20,9.2,3,17.3.4,22.3-7,.7-1,2.6-1.9,3.9-1.9,4.8.3,9.5,1,14.3,1.6-2.4,12-14,22.2-26.9,23.2-5.9.4-12,0-17.8-.9-10.1-1.7-17.4-7.8-22.4-16.7-8.2-14.8-6.2-37.3,4.6-50.3,9.1-11,25.6-14.9,41.1-9.9,12.8,4.2,21.8,16.4,22.6,30.5.2,3.6,0,7.2,0,11.4h-53.8ZM613.7,136c-.3-9.3-8-15.9-17.6-16.1-6.9-.1-17.3,7.4-16.2,16.1h33.7Z"/>
        <path class="cls-1" d="M442.4,185.2c-22.4.4-38.7-15.4-39.5-37.4-.9-23.3,14.4-41.7,35.2-42.9,28.2-1.5,42.3,18.4,42.8,38.3.6,25.1-15.7,42.3-38.5,41.9ZM462.5,147.2c-.2-2.5,0-5-.6-7.4-1.8-8.4-5.8-15.2-14.6-17.9-8.3-2.5-15,.1-20.4,6.6-7.9,9.4-6.6,28.3,2.6,36.5,1,.9,2.1,1.6,3.3,2.2,14.4,7.2,28.7-2.5,29.8-20Z"/>
        <path class="cls-1" d="M905.2,143.9c0,16.8-5.7,29.6-19.8,37-21.3,11.2-55.2,2.1-57.3-32.2-1.1-17.8,4.8-32.6,21.7-40.2,24.4-11,55.9,2.3,55.5,35.4ZM887.7,145c-1.1-4-1.9-8.8-3.8-13.1-3.3-7.4-9.5-11-17.6-10.8-8.1.1-14.5,4.1-17,11.6-1.9,5.8-2.6,12.4-2.1,18.5.8,10.1,8.2,17,17.7,18,9.5,1,16.9-3.5,20.2-12.6,1.2-3.4,1.6-7.1,2.5-11.5Z"/>
        <path class="cls-1" d="M487.4,162.9c5.3-1,10.3-2,15.3-2.7.9-.1,2.6,1.3,3,2.4,3.1,8.3,18.3,11.1,26.2,5.2,4.4-3.3,4.4-9.6-.6-11.8-4.6-2.1-9.8-2.7-14.8-4-5.1-1.4-10.5-2.3-15.3-4.3-13.6-5.7-16.9-21.8-7.3-33,11.4-13.3,43.3-13.4,53,2.1,2.1,3.4,3.5,7.3,5.7,11.8-6.2.7-11.1,1.4-16,1.7-1,0-2.6-1.3-3-2.3-3.1-9-14.8-9.6-20.9-6.9-2.5,1.1-5.2,4.7-5.3,7.3,0,2.2,3,5.8,5.5,6.5,7.2,2.3,14.8,3.4,22.2,5.3,10.7,2.7,16.9,8.6,17.7,16.6,1.1,11-3.3,19.5-13.5,24.4-12.9,6.3-26.1,5.8-38.9-.4-7-3.4-11.4-9.4-13.2-17.7Z"/>
        <path class="cls-1" d="M375.4,76.6h18.3v106.1h-18.3v-106.1Z"/>
        <path class="cls-1" d="M800.7,182.7h-17.8v-76.4h17.8v11.5c6.4-10.5,14.4-14.4,25.8-12.1-.6,5.7-1.1,11.4-1.7,17.3-1.9,0-3.5,0-5.2,0-11.2,0-18.2,6.3-18.6,17.6-.4,12.3-.2,24.6-.3,37,0,1.6,0,3.2,0,5.2Z"/>
        <path class="cls-1" d="M644.5,106.1c5.1,0,9.8,0,14.4,0,.8,0,1.6.1,2.9.2v8.9c7-8.3,15-12.3,26.1-9.2-.7,5.7-1.3,11.1-2,17-2.2,0-4.3,0-6.4,0-8.5.2-15.4,5.4-16.3,13.9-1,9.4-.8,18.9-1,28.4-.1,5.7,0,11.3,0,17.4h-17.6v-76.5Z"/>
        <path class="cls-1" d="M97,44c-4.6,0-8,3.5-7.9,8.3,0,4.4,3.4,7.7,8,7.7,4.7,0,8.1-3.5,8-8.2-.1-4.4-3.6-7.8-8-7.8ZM88,105.3c0-3.9-3.1-7-6.9-7-3.9,0-7.2,3.6-7,7.5.2,3.9,3.2,6.6,7.3,6.4,4.2-.2,6.8-2.8,6.7-6.9ZM179,96.8c.1-3.6-2.6-6.3-6.1-6.3-4,0-7,2.6-6.7,6.3.2,3.7,2.1,6.2,6.1,6.4,3.8.2,6.6-2.5,6.7-6.3ZM174.5,139.8c-4.1,0-6.7,2.4-6.5,6.3.1,4,2.5,6.1,6.4,6.1,3.8,0,6.4-2.2,6.4-6.1,0-3.7-2.1-6.2-6.2-6.3Z"/>
        <path class="cls-1" d="M97,44c4.3,0,7.9,3.4,8,7.8.1,4.7-3.3,8.2-8,8.2-4.6,0-7.9-3.3-8-7.7,0-4.8,3.4-8.3,7.9-8.3Z"/>
        <path class="cls-1" d="M88,105.3c0,4.1-2.5,6.8-6.7,6.9-4,.2-7.1-2.5-7.3-6.4-.2-3.9,3.2-7.4,7-7.5,3.8,0,6.9,3.1,6.9,7Z"/>
        <path class="cls-1" d="M179,96.8c-.1,3.8-3,6.5-6.7,6.3-4-.2-5.9-2.7-6.1-6.4-.2-3.7,2.8-6.3,6.7-6.3,3.6,0,6.2,2.8,6.1,6.3Z"/>
        <path class="cls-1" d="M174.5,139.8c4.1.1,6.2,2.6,6.2,6.3,0,3.9-2.6,6.1-6.4,6.1-3.8,0-6.2-2-6.4-6.1-.1-4,2.4-6.4,6.5-6.3Z"/>
      </g>
    </g>
  </g>
</svg>